<svg xmlns="http://www.w3.org/2000/svg" xmlns:xlink="http://www.w3.org/1999/xlink" width="100%" height="100%" fill-rule="evenodd" stroke-linejoin="round" stroke-miterlimit="1.414" clip-rule="evenodd" version="1.1" viewBox="0 0 40 47" xml:space="preserve"><g><g transform="matrix(1,0,0,1,-55.7296,-305.051) matrix(1,0,0,1,103.456,1.2628)"><g id="gobo"><path fill="#FAA32D" fill-rule="nonzero" d="M180.438,263.602C180.9,263.462 181.373,263.388 181.853,263.394C182.883,263.69 183.938,263.918 185.008,264.077C184.783,264.58 184.555,265.08 184.329,265.584C184.196,265.878 184.061,266.172 183.925,266.465L183.42,267.866C183.098,268.891 182.939,270.05 182.098,269.993C180.416,269.879 179.584,266.167 180.438,263.602ZM165.377,247.374C165.446,246.817 165.555,246.262 165.705,245.712C166.316,243.484 167.669,241.543 168.97,239.618L169.7,238.402C170.037,237.725 170.067,236.874 169.964,236.085C169.51,232.623 166.9,229.766 165.559,226.535C165.358,226.049 164.932,225.709 165.528,225.726C166.98,225.769 168.284,227.098 169.743,227.487C171.041,227.833 171.712,226.571 171.535,225.653C170.997,222.867 168.99,220.65 169.331,218.632C169.456,217.892 170.388,217.962 170.972,218.339C173.952,220.263 176.797,225.83 180.072,224.341C181.393,223.74 181.647,222.238 181.416,220.897C180.66,216.524 177.784,212.553 175.871,208.339C175.47,207.456 174.963,206.563 174.957,205.683C174.959,205.59 175.482,205.836 175.843,206.073C179.823,208.698 182.695,212.816 185.845,216.512L188.772,219.846L189.121,220.27C190.065,221.406 191.023,222.531 192.017,223.624C192.296,223.928 192.714,224.248 192.714,224.248C193.585,224.333 194.603,223.831 195.401,223.256C197.249,221.922 196.577,218.766 197.406,216.281C197.985,214.546 198.603,217.019 198.979,218.564C199.971,222.637 200.745,226.836 202.006,230.897C202.302,231.843 202.78,233.098 202.78,233.098C206.338,237.543 209.012,242.982 208.483,248.403C207.324,260.308 193.239,265.834 182.028,262.605C182.028,262.605 181.388,262.595 180.871,262.723C177.833,263.48 175.22,266.184 173.565,269.149C173.338,269.534 172.81,269.567 172.515,269.253C171.135,267.788 172.085,264.992 172.872,262.83C172.963,262.431 172.497,262.18 172.497,262.18C170.26,260.49 168.341,258.239 167.047,255.728C168.737,253.904 170.508,252.163 172.223,250.362C172.491,250.08 172.755,249.792 173.011,249.499C173.895,248.483 175.195,247.277 174.806,245.913C174.617,245.249 173.992,245.126 173.417,245.114C172.494,245.111 171.889,245.263 171.126,245.445C169.143,245.917 167.16,246.499 165.377,247.374ZM191.841,264.161C191.957,265.168 192.146,266.184 192.294,267.196C192.399,267.932 192.587,268.681 192.349,269.336C192.28,269.501 192.001,269.366 191.813,269.276C189.439,268.143 187.12,264.962 186.631,264.265C188.359,264.407 190.111,264.374 191.841,264.161ZM173.293,245.92C169.425,246.026 165.079,247.801 162.607,250.236C160.49,252.321 158.731,255.162 158.769,257.95C158.784,259.036 159.511,260.165 160.667,260.224C161.634,260.272 162.416,259.521 163.049,258.922C165.924,256.199 168.398,253.111 171.367,250.089C172.711,248.704 174.41,246.882 173.999,246.054C173.825,245.903 173.563,245.917 173.293,245.92ZM209.35,246.408C211.792,248.529 213.246,251.575 213.519,254.729C213.846,258.5 211.051,258.856 209.832,257.616C208.868,256.634 208.163,255.454 207.497,254.241C208.526,252.314 209.173,250.201 209.324,248.013C209.362,247.477 209.369,246.941 209.35,246.408ZM191.012,255.843C190.607,256.219 191.829,257.168 193.27,257.689C194.469,258.122 196.748,258.445 196.758,257.786C196.766,257.301 195.753,257.378 194.491,257.132C193.732,256.983 192.978,256.667 192.776,256.578C191.608,256.066 191.408,255.476 191.012,255.843ZM182.152,247.557C182.152,249.368 183.622,250.837 185.434,250.837C187.246,250.837 188.715,249.368 188.715,247.557C188.715,245.745 187.246,244.275 185.434,244.275C183.621,244.276 182.152,245.745 182.152,247.557ZM197.958,247.557C197.958,249.368 199.427,250.837 201.24,250.837C203.051,250.837 204.521,249.368 204.521,247.557C204.521,245.745 203.052,244.275 201.24,244.275C199.427,244.276 197.958,245.745 197.958,247.557ZM185.875,245.16C186.512,245.16 187.09,245.418 187.508,245.836C187.926,246.254 188.184,246.831 188.184,247.468C188.184,248.105 187.926,248.683 187.508,249.101C187.09,249.519 186.512,249.777 185.875,249.777C185.238,249.777 184.661,249.519 184.243,249.101C183.825,248.683 183.567,248.105 183.567,247.468C183.567,246.831 183.825,246.254 184.243,245.836C184.661,245.418 185.238,245.16 185.875,245.16ZM199.372,247.468C199.372,248.744 200.405,249.777 201.68,249.777C202.955,249.777 203.989,248.744 203.989,247.468C203.989,246.194 202.955,245.16 201.68,245.16C200.405,245.16 199.372,246.194 199.372,247.468Z" transform="matrix(0.729273,0,0,0.729273,-163.512,153.804)"/></g></g></g></svg>