<?xml version="1.0" encoding="UTF-8" standalone="no"?>
<!DOCTYPE svg PUBLIC "-//W3C//DTD SVG 1.1//EN" "http://www.w3.org/Graphics/SVG/1.1/DTD/svg11.dtd">
<svg width="100%" height="100%" viewBox="0 0 109 128" version="1.1" xmlns="http://www.w3.org/2000/svg" xmlns:xlink="http://www.w3.org/1999/xlink" xml:space="preserve" xmlns:serif="http://www.serif.com/" style="fill-rule:evenodd;clip-rule:evenodd;">
    <g id="ID0.8323829737491906" transform="matrix(0.857375,0,0,0.857375,7.9509,8.9882)">
        <g id="R_Leg" transform="matrix(0.773781,0,0,0.773781,-4,0.5)">
            <path d="M75.198,146.331C75.198,144.274 75.775,141.319 78.967,140.652C83.572,139.686 88.841,144.349 90.274,145.721C90.168,146.267 91.96,157.283 91.96,158.238C91.96,161.467 91.097,161.595 90.762,161.648C87.609,162.107 79.206,153.271 75.349,148.13C75.296,147.851 75.198,147.23 75.198,146.331Z" style="fill:rgb(255,201,62);fill-rule:nonzero;stroke:rgb(96,56,19);stroke-width:2px;"/>
        </g>
        <g id="Center_Leg" transform="matrix(0.773781,0,0,0.773781,-4,0.5)">
            <path d="M62.43,161.767C60.144,159.287 59.818,152.566 59.818,149.707C59.818,148.494 59.88,147.687 59.883,147.662L59.887,147.6C59.887,147.6 59.88,147.341 59.88,147.246C59.88,141.862 64.837,139.993 65.677,139.712C68.547,139.747 73.508,141.105 74.692,143.154C74.812,143.36 74.924,143.62 74.924,143.953C74.924,144.245 74.837,144.599 74.589,145.026C74.474,145.222 72.436,150.038 70.712,153.731L69.48,157.146C68.558,160.13 67.107,163.116 65.528,163.116C64.28,163.118 63.267,162.676 62.43,161.767Z" style="fill:rgb(255,201,62);fill-rule:nonzero;stroke:rgb(96,56,19);stroke-width:2px;"/>
        </g>
        <g id="R_Arm" transform="matrix(0.773781,0,0,0.773781,-4,0.5)">
            <path d="M127.081,122.735L124.852,118.802C122.411,114.551 119.591,110.659 117.104,107.233C113.907,102.82 111.125,98.254 110.204,95.028C109.872,93.866 110.032,92.757 110.51,92.144C110.556,91.979 111.038,91.716 111.378,91.646C115.474,90.761 132.429,100.495 136.659,105.698C142.856,113.318 145.334,124.007 143.952,129.391C143.385,131.591 142.117,133.15 140.281,133.892C135.588,135.788 132.501,132.366 127.081,122.735Z" style="fill:rgb(255,201,62);fill-rule:nonzero;stroke:rgb(96,56,19);stroke-width:2px;"/>
        </g>
        <g id="Body" transform="matrix(0.773781,0,0,0.773781,-4,0.5)">
            <path d="M60.339,47.617C66.358,44.346 60.146,32.03 54.136,20.116C50.851,13.602 44.993,2.6 46.897,1.569C50.58,-0.427 68.175,20.337 75.308,28.706L82.579,36.988C82.579,36.988 87.777,43.365 91.755,47.571C91.825,47.644 95.586,47.06 98.184,44.901C100.302,43.134 100.022,41.157 100.696,36.999C101.315,33.179 101.987,26.266 104.037,26.231C107.125,26.184 109.155,38.912 109.946,43.627L110.383,46.149C111.42,51.757 116.83,68.618 117.062,69.333C117.136,69.507 117.258,69.733 117.258,69.733L117.303,69.824L117.365,69.9C125.719,80.261 131.932,92.824 131.932,104.594C131.932,129.518 110.084,147.063 80.84,147.063C75.416,147.063 70.111,146.303 65.072,144.809L64.801,144.731C64.801,144.731 56.891,144.066 46.772,157.367C44.742,160.037 44.923,162.526 42.062,161.76C41.108,161.505 40.407,160.804 39.835,159.531C38.467,156.495 39.477,149.302 41.149,144.706L41.412,143.984L40.808,143.506C40.66,143.388 24.248,131.429 22.59,114.292C21.145,99.354 28.691,90.849 31.822,86.175L33.621,83.179C35.892,77.654 31.618,69.97 27.846,63.19C25.594,59.142 21.959,53.235 22.78,51.847C23.691,50.309 26.947,51.946 30.235,53.514C32.901,54.788 35.466,56.588 37.247,55.401C39.099,54.168 37.884,51.071 36.201,46.784C34.618,42.758 31.621,36.398 32.772,33.773C33.089,33.051 33.645,32.544 34.472,32.223C37.53,31.039 41.902,36.19 45.441,40.219C49.758,45.138 54.654,50.712 60.339,47.617Z" style="fill:rgb(255,201,62);fill-rule:nonzero;stroke:rgb(96,56,19);stroke-width:2px;stroke-linecap:round;stroke-linejoin:round;"/>
        </g>
        <g id="L_Eye">
            <g id="White_1_" transform="matrix(0.773781,0,0,0.773781,-4,0.5)">
                <path d="M65.386,106.419C65.386,110.914 69.033,114.559 73.531,114.559C78.029,114.559 81.674,110.914 81.674,106.419C81.674,101.921 78.028,98.271 73.531,98.271C69.032,98.273 65.386,101.921 65.386,106.419Z" style="fill:white;fill-rule:nonzero;"/>
            </g>
            <g id="Pupil_1_" transform="matrix(0.773781,0,0,0.773781,-4,0.5)">
                <path d="M74.627,100.467C76.208,100.467 77.641,101.109 78.678,102.147C79.716,103.184 80.358,104.617 80.358,106.198C80.358,107.779 79.716,109.212 78.678,110.249C77.641,111.287 76.208,111.929 74.627,111.929C73.046,111.929 71.613,111.287 70.576,110.249C69.538,109.212 68.896,107.779 68.896,106.198C68.896,104.617 69.538,103.184 70.576,102.147C71.613,101.109 73.046,100.467 74.627,100.467Z" style="fill:rgb(96,56,19);fill-rule:nonzero;"/>
            </g>
        </g>
        <g id="R_Eye">
            <g id="White" transform="matrix(0.773781,0,0,0.773781,-4,0.5)">
                <path d="M104.618,106.419C104.618,110.914 108.264,114.559 112.764,114.559C117.259,114.559 120.907,110.914 120.907,106.419C120.907,101.921 117.261,98.271 112.764,98.271C108.264,98.273 104.618,101.921 104.618,106.419Z" style="fill:white;fill-rule:nonzero;"/>
            </g>
            <g id="Pupil" transform="matrix(0.773781,0,0,0.773781,-4,0.5)">
                <path d="M108.127,106.198C108.127,109.363 110.691,111.927 113.857,111.927C117.021,111.927 119.588,109.365 119.588,106.198C119.588,103.035 117.021,100.467 113.857,100.467C110.691,100.467 108.127,103.034 108.127,106.198Z" style="fill:rgb(96,56,19);fill-rule:nonzero;"/>
            </g>
        </g>
        <g id="L_Arm" transform="matrix(0.773781,0,0,0.773781,-4,0.5)">
            <path d="M9.154,137.858C7.485,136.792 6.523,135.032 6.368,132.762C5.991,127.211 10.384,117.158 17.867,110.8C22.977,106.458 41.427,99.99 45.291,101.607C45.61,101.741 46.038,102.085 46.051,102.259C46.412,102.947 46.364,104.064 45.825,105.146C44.331,108.15 40.761,112.133 36.809,115.882C33.737,118.806 30.256,122.108 27.081,125.845L24.169,129.295C17.082,137.777 13.417,140.583 9.154,137.858Z" style="fill:rgb(255,201,62);fill-rule:nonzero;stroke:rgb(96,56,19);stroke-width:2px;"/>
        </g>
        <g id="Mouth" transform="matrix(0.773781,0,0,0.773781,-4,0.5)">
            <path d="M100.718,132.05C100.718,132.05 93.305,132.056 88.114,127.607" style="fill:none;stroke:rgb(96,56,19);stroke-width:2px;stroke-linecap:round;stroke-linejoin:round;"/>
        </g>
    </g>
</svg>
