<svg xmlns="http://www.w3.org/2000/svg" xmlns:xlink="http://www.w3.org/1999/xlink" width="100%" height="100%" fill-rule="evenodd" stroke-linejoin="round" stroke-miterlimit="1.414" clip-rule="evenodd" version="1.1" viewBox="0 0 75 22" xml:space="preserve"><g id="R_Leg"><path fill="#FAA32D" fill-rule="nonzero" d="M172.277,556.319C173.79,536.116 184.439,523.845 189.288,516.606L192.574,511.134C196.721,501.044 188.916,487.012 182.027,474.63C177.915,467.238 171.276,456.45 172.776,453.915C174.439,451.107 180.386,454.096 186.39,456.96C191.259,459.287 195.943,462.574 199.195,460.406C202.578,458.154 200.359,452.498 197.285,444.669C194.394,437.317 188.921,425.703 191.023,420.909C191.602,419.59 192.618,418.664 194.128,418.078C199.712,415.916 207.696,425.323 214.16,432.68C222.043,441.664 230.984,451.843 241.366,446.191C252.358,440.217 241.014,417.725 230.038,395.968C224.039,384.072 213.341,363.98 216.818,362.097C223.544,358.452 255.677,396.372 268.703,411.655L281.981,426.78C281.981,426.78 291.474,438.426 298.738,446.107C298.866,446.24 305.735,445.174 310.479,441.231C314.347,438.004 313.836,434.393 315.067,426.8C316.197,419.824 317.424,407.199 321.168,407.136C326.807,407.05 330.515,430.294 331.959,438.904L332.757,443.51C334.651,453.751 344.531,484.543 344.954,485.849C345.089,486.166 345.312,486.579 345.312,486.579L345.394,486.745L345.508,486.884C359.387,504.097 370.03,524.639 371.838,544.39C375.711,547.234 378.893,549.984 380.743,552.259C392.06,566.175 396.585,585.695 394.061,595.527C393.026,599.545 390.71,602.392 387.357,603.747C378.918,607.156 373.323,601.149 363.703,584.173C351.496,606.787 326.921,622.381 296.12,626.632C296.638,631.281 299.113,646.691 299.113,648.208C299.113,654.105 297.537,654.338 296.925,654.435C291.167,655.273 275.821,639.137 268.778,629.748C268.698,629.33 268.563,628.49 268.518,627.294C267.706,627.213 266.897,627.123 266.09,627.024C264.684,630.253 262.374,635.556 260.31,639.977L258.06,646.214C256.376,651.663 253.726,657.116 250.842,657.116C248.564,657.12 246.713,656.312 245.185,654.652C241.01,650.123 240.415,637.849 240.415,632.628C240.415,630.413 240.528,628.939 240.534,628.894L240.541,628.78C240.541,628.78 240.528,628.307 240.528,628.134C240.528,627.249 240.601,626.416 240.736,625.633C234.77,628.217 226.229,633.948 216.59,646.617C212.883,651.493 213.213,656.039 207.989,654.64C206.247,654.174 204.966,652.894 203.922,650.569C201.424,645.025 203.268,631.889 206.321,623.495L206.802,622.177L205.699,621.304C205.5,621.145 189.193,609.26 179.402,590.507L175.312,595.352C162.37,610.842 155.677,615.966 147.892,610.99C144.844,609.043 143.087,605.829 142.804,601.683C142.116,591.546 150.138,573.187 163.804,561.576C165.735,559.935 168.71,558.127 172.277,556.319Z" transform="matrix(0.0729432,0,0,0.0729432,46.2064,-26.3946)"/></g><g id="R_Leg1"><path fill="#FAA32D" fill-rule="nonzero" d="M1006.08,442.519L1000.36,393.759C1000.09,392.669 1001.45,391.851 1002.54,392.396L1035.51,413.924C1035.51,413.924 1047.78,409.292 1060.58,408.747C1068.21,408.202 1074.75,408.747 1081.02,409.837L1104.46,388.036C1105.28,387.491 1106.64,387.763 1106.91,388.854L1114,418.012C1114,418.012 1131.44,430.82 1136.61,439.813C1145.33,454.801 1145.61,467.064 1145.61,467.064C1145.61,467.064 1164.95,472.786 1168.23,488.319C1171.5,503.852 1159.5,533.283 1108.27,543.366C1092.79,546.414 1080.3,547.87 1081.31,549.93C1081.69,550.163 1082.05,550.428 1082.38,550.724C1083.75,551.814 1100.37,571.435 1105.82,566.53C1112.36,560.807 1121.35,549.634 1131.16,558.627C1140.97,567.62 1122.44,582.88 1114.54,586.968C1095.74,595.416 1080.48,579.338 1077.21,574.977L1076.92,574.594C1075.75,577.069 1074.42,579.622 1073.12,581.518C1068.76,587.785 1065.49,591.873 1062.22,594.326L1082.66,614.219C1088.38,619.396 1100.91,630.024 1100.91,630.024C1100.91,630.024 1139.88,623.212 1139.88,642.832C1139.88,654.55 1120.26,657.275 1093.83,654.823C1092.19,654.55 1090.56,654.005 1089.2,652.915C1083.2,647.737 1066.03,632.477 1055.13,621.849C1049.37,616.18 1043.95,611.213 1039.38,607.172C1039.27,607.253 1039.16,607.331 1039.06,607.406C1034.15,610.676 1017.25,622.667 995.726,629.479L994.636,629.752C993.546,630.024 993.001,631.387 993.546,632.477C998.179,639.017 1006.63,652.098 991.638,656.73C977.195,661.363 950.217,622.939 961.662,612.856C966.84,609.041 971.473,610.949 973.925,612.039C975.288,612.584 976.65,612.584 978.013,612.311C981.283,611.221 987.278,609.041 991.911,606.588C994.536,605.245 996.71,604.08 998.564,603.034C998.405,603.042 998.275,603.046 998.179,603.046C989.731,603.318 979.376,603.318 967.93,599.503C934.684,588.603 934.412,552.904 945.039,547.181C955.395,541.459 960.027,563.532 975.015,576.885C981.556,582.88 989.458,585.06 995.999,586.423C996.814,586.567 997.695,586.618 998.625,586.592C994.237,580.283 991.161,573.034 990.003,568.982C987.551,560.534 994.636,555.084 1000.63,550.452C1011.69,542.479 1021.05,535.234 1031.23,537.881C1016.45,531.391 1004.6,521.428 996.544,508.485C978.235,479.088 1004.58,444.322 1006.08,442.519ZM1006.08,442.519L1006.08,442.538C1006.17,442.421 1006.16,442.417 1006.08,442.519Z" transform="matrix(0.0729432,0,0,0.0729432,-68.4812,-26.394)"/></g><g id="R_Leg2"><path fill="#FAA32D" fill-rule="nonzero" d="M870.349,505.112C876.632,508.616 880.526,515.246 880.526,522.44C880.526,529.633 876.632,536.264 870.349,539.767C855.734,547.918 838.394,557.589 823.982,565.626C817.838,569.053 810.338,568.969 804.271,565.406C798.205,561.843 794.479,555.334 794.479,548.298C794.479,532.11 794.479,512.77 794.479,496.581C794.479,489.546 798.205,483.036 804.271,479.473C810.338,475.911 817.838,475.827 823.982,479.254C838.394,487.291 855.734,496.961 870.349,505.112ZM465.019,491.591C482.044,491.591 495.867,505.414 495.867,522.44C495.867,539.465 482.044,553.288 465.019,553.288C447.993,553.288 434.17,539.465 434.17,522.44C434.17,505.414 447.993,491.591 465.019,491.591ZM583.476,491.591C600.502,491.591 614.324,505.414 614.324,522.44C614.324,539.465 600.502,553.288 583.476,553.288C566.45,553.288 552.628,539.465 552.628,522.44C552.628,505.414 566.45,491.591 583.476,491.591ZM701.934,491.591C718.959,491.591 732.782,505.414 732.782,522.44C732.782,539.465 718.959,553.288 701.934,553.288C684.908,553.288 671.085,539.465 671.085,522.44C671.085,505.414 684.908,491.591 701.934,491.591Z" transform="matrix(0.0729432,0,0,0.0729432,-10.414,-26.394)"/></g></svg>